<mxfile host="app.diagrams.net" modified="2023-12-16T15:48:25.960Z" agent="Mozilla/5.0 (Windows NT 10.0; Win64; x64) AppleWebKit/537.36 (KHTML, like Gecko) Chrome/120.0.0.0 Safari/537.36" etag="6V8BT7EnjO7ZkCfBIxGl" version="22.1.11" type="device">
  <diagram name="Strona-1" id="GNXR33HboPR-zMcjBhGg">
    <mxGraphModel dx="1259" dy="662" grid="1" gridSize="10" guides="1" tooltips="1" connect="1" arrows="1" fold="1" page="1" pageScale="1" pageWidth="827" pageHeight="1169" math="0" shadow="0">
      <root>
        <mxCell id="0" />
        <mxCell id="1" parent="0" />
        <mxCell id="Yq546CYEzPd5Z6B7kyzp-30" style="edgeStyle=orthogonalEdgeStyle;rounded=0;orthogonalLoop=1;jettySize=auto;html=1;exitX=0.5;exitY=1;exitDx=0;exitDy=0;entryX=0.5;entryY=0;entryDx=0;entryDy=0;" edge="1" parent="1" source="Yq546CYEzPd5Z6B7kyzp-1" target="Yq546CYEzPd5Z6B7kyzp-2">
          <mxGeometry relative="1" as="geometry" />
        </mxCell>
        <mxCell id="Yq546CYEzPd5Z6B7kyzp-1" value="&lt;b&gt;Wynik:&lt;br&gt;&lt;/b&gt;Macierz współwystępowania&lt;br&gt;dla rastra A" style="rounded=0;whiteSpace=wrap;html=1;" vertex="1" parent="1">
          <mxGeometry x="20" y="140" width="130" height="60" as="geometry" />
        </mxCell>
        <mxCell id="Yq546CYEzPd5Z6B7kyzp-32" style="edgeStyle=orthogonalEdgeStyle;rounded=0;orthogonalLoop=1;jettySize=auto;html=1;exitX=0.5;exitY=1;exitDx=0;exitDy=0;entryX=0.5;entryY=0;entryDx=0;entryDy=0;" edge="1" parent="1" source="Yq546CYEzPd5Z6B7kyzp-2" target="Yq546CYEzPd5Z6B7kyzp-13">
          <mxGeometry relative="1" as="geometry" />
        </mxCell>
        <mxCell id="Yq546CYEzPd5Z6B7kyzp-2" value="&lt;b&gt;Wynik:&lt;br&gt;&lt;/b&gt;Wektor współwystępowania&lt;br&gt;dla rastra A" style="rounded=0;whiteSpace=wrap;html=1;" vertex="1" parent="1">
          <mxGeometry x="20" y="280" width="130" height="60" as="geometry" />
        </mxCell>
        <mxCell id="Yq546CYEzPd5Z6B7kyzp-26" style="edgeStyle=orthogonalEdgeStyle;rounded=0;orthogonalLoop=1;jettySize=auto;html=1;exitX=0.5;exitY=1;exitDx=0;exitDy=0;entryX=0.5;entryY=0;entryDx=0;entryDy=0;" edge="1" parent="1" source="Yq546CYEzPd5Z6B7kyzp-3" target="Yq546CYEzPd5Z6B7kyzp-5">
          <mxGeometry relative="1" as="geometry" />
        </mxCell>
        <mxCell id="Yq546CYEzPd5Z6B7kyzp-3" value="&lt;b&gt;Dane wejściowe:&lt;br&gt;&lt;/b&gt;Raster B" style="rounded=1;whiteSpace=wrap;html=1;" vertex="1" parent="1">
          <mxGeometry x="180" y="20" width="130" height="60" as="geometry" />
        </mxCell>
        <mxCell id="Yq546CYEzPd5Z6B7kyzp-27" style="edgeStyle=orthogonalEdgeStyle;rounded=0;orthogonalLoop=1;jettySize=auto;html=1;exitX=0.5;exitY=1;exitDx=0;exitDy=0;entryX=0.5;entryY=0;entryDx=0;entryDy=0;" edge="1" parent="1" source="Yq546CYEzPd5Z6B7kyzp-4" target="Yq546CYEzPd5Z6B7kyzp-1">
          <mxGeometry relative="1" as="geometry" />
        </mxCell>
        <mxCell id="Yq546CYEzPd5Z6B7kyzp-4" value="&lt;b&gt;Dane wejściowe:&lt;br&gt;&lt;/b&gt;Raster A" style="rounded=1;whiteSpace=wrap;html=1;" vertex="1" parent="1">
          <mxGeometry x="20" y="20" width="130" height="60" as="geometry" />
        </mxCell>
        <mxCell id="Yq546CYEzPd5Z6B7kyzp-28" style="edgeStyle=orthogonalEdgeStyle;rounded=0;orthogonalLoop=1;jettySize=auto;html=1;exitX=0.5;exitY=1;exitDx=0;exitDy=0;entryX=0.5;entryY=0;entryDx=0;entryDy=0;" edge="1" parent="1" source="Yq546CYEzPd5Z6B7kyzp-5" target="Yq546CYEzPd5Z6B7kyzp-6">
          <mxGeometry relative="1" as="geometry" />
        </mxCell>
        <mxCell id="Yq546CYEzPd5Z6B7kyzp-5" value="&lt;b&gt;Wynik:&lt;br&gt;&lt;/b&gt;Macierz współwystępowania&lt;br&gt;dla rastra B" style="rounded=0;whiteSpace=wrap;html=1;" vertex="1" parent="1">
          <mxGeometry x="180" y="140" width="130" height="60" as="geometry" />
        </mxCell>
        <mxCell id="Yq546CYEzPd5Z6B7kyzp-31" style="edgeStyle=orthogonalEdgeStyle;rounded=0;orthogonalLoop=1;jettySize=auto;html=1;exitX=0.5;exitY=1;exitDx=0;exitDy=0;entryX=0.5;entryY=0;entryDx=0;entryDy=0;" edge="1" parent="1" source="Yq546CYEzPd5Z6B7kyzp-6" target="Yq546CYEzPd5Z6B7kyzp-12">
          <mxGeometry relative="1" as="geometry" />
        </mxCell>
        <mxCell id="Yq546CYEzPd5Z6B7kyzp-6" value="&lt;b&gt;Wynik:&lt;br&gt;&lt;/b&gt;Wektor współwystępowania&lt;br&gt;dla rastra B" style="rounded=0;whiteSpace=wrap;html=1;" vertex="1" parent="1">
          <mxGeometry x="180" y="280" width="130" height="60" as="geometry" />
        </mxCell>
        <mxCell id="Yq546CYEzPd5Z6B7kyzp-12" value="&lt;b&gt;Wynik:&lt;br&gt;&lt;/b&gt;Znormalizowany wektor współwystępowania dla rastra B" style="rounded=0;whiteSpace=wrap;html=1;" vertex="1" parent="1">
          <mxGeometry x="180" y="390" width="130" height="60" as="geometry" />
        </mxCell>
        <mxCell id="Yq546CYEzPd5Z6B7kyzp-13" value="&lt;b&gt;Wynik:&lt;br&gt;&lt;/b&gt;Znormalizowany wektor współwystępowania dla rastra A" style="rounded=0;whiteSpace=wrap;html=1;" vertex="1" parent="1">
          <mxGeometry x="20" y="390" width="130" height="60" as="geometry" />
        </mxCell>
        <mxCell id="Yq546CYEzPd5Z6B7kyzp-14" value="&lt;b&gt;Wynik:&lt;br&gt;&lt;/b&gt;Miara niepodobieństwa rastrów A i B" style="rounded=0;whiteSpace=wrap;html=1;" vertex="1" parent="1">
          <mxGeometry x="100" y="534.5" width="130" height="60" as="geometry" />
        </mxCell>
        <mxCell id="Yq546CYEzPd5Z6B7kyzp-15" value="&lt;i&gt;1. Obliczenie&lt;br&gt;macierzy&lt;br&gt;współwystępowania&lt;/i&gt;" style="text;html=1;align=center;verticalAlign=middle;resizable=0;points=[];autosize=1;strokeColor=none;fillColor=none;" vertex="1" parent="1">
          <mxGeometry x="100" y="80" width="130" height="60" as="geometry" />
        </mxCell>
        <mxCell id="Yq546CYEzPd5Z6B7kyzp-16" value="&lt;i&gt;2. Sprowadzenie macierzy&lt;br&gt;współwystępowania do&lt;br&gt;postaci jednowymiarowej&lt;/i&gt;" style="text;html=1;align=center;verticalAlign=middle;resizable=0;points=[];autosize=1;strokeColor=none;fillColor=none;" vertex="1" parent="1">
          <mxGeometry x="85" y="210" width="160" height="60" as="geometry" />
        </mxCell>
        <mxCell id="Yq546CYEzPd5Z6B7kyzp-17" value="&lt;i&gt;3. Normalizacja&lt;/i&gt;" style="text;html=1;align=center;verticalAlign=middle;resizable=0;points=[];autosize=1;strokeColor=none;fillColor=default;" vertex="1" parent="1">
          <mxGeometry x="110" y="350" width="110" height="30" as="geometry" />
        </mxCell>
        <mxCell id="Yq546CYEzPd5Z6B7kyzp-38" value="" style="endArrow=classic;html=1;rounded=0;exitX=0.5;exitY=1;exitDx=0;exitDy=0;entryX=0.75;entryY=0;entryDx=0;entryDy=0;" edge="1" parent="1" source="Yq546CYEzPd5Z6B7kyzp-12" target="Yq546CYEzPd5Z6B7kyzp-14">
          <mxGeometry width="50" height="50" relative="1" as="geometry">
            <mxPoint x="390" y="350" as="sourcePoint" />
            <mxPoint x="440" y="300" as="targetPoint" />
          </mxGeometry>
        </mxCell>
        <mxCell id="Yq546CYEzPd5Z6B7kyzp-39" value="" style="endArrow=classic;html=1;rounded=0;exitX=0.5;exitY=1;exitDx=0;exitDy=0;entryX=0.25;entryY=0;entryDx=0;entryDy=0;" edge="1" parent="1" source="Yq546CYEzPd5Z6B7kyzp-13" target="Yq546CYEzPd5Z6B7kyzp-14">
          <mxGeometry width="50" height="50" relative="1" as="geometry">
            <mxPoint x="255" y="460" as="sourcePoint" />
            <mxPoint x="208" y="560" as="targetPoint" />
          </mxGeometry>
        </mxCell>
        <mxCell id="Yq546CYEzPd5Z6B7kyzp-18" value="&lt;i&gt;4. Funkcja pozwalająca na porównywanie&lt;br&gt;rozkładów prawdopodobieństwa&lt;/i&gt;" style="text;html=1;align=center;verticalAlign=middle;resizable=0;points=[];autosize=1;strokeColor=none;fillColor=default;gradientColor=none;labelBackgroundColor=none;labelBorderColor=none;" vertex="1" parent="1">
          <mxGeometry x="45" y="470" width="240" height="40" as="geometry" />
        </mxCell>
      </root>
    </mxGraphModel>
  </diagram>
</mxfile>
